<svg width="87" height="87" viewBox="0 0 87 87" fill="none" xmlns="http://www.w3.org/2000/svg">
<circle cx="43.5" cy="43.5" r="43.5" fill="url(#paint0_linear_103_20741)"/>
<g clip-path="url(#clip0_103_20741)">
<path d="M35.7987 63.3587C35.736 63.3241 35.6751 63.2853 35.6103 63.2554C34.9419 62.9479 34.5725 62.2731 34.6893 61.5697C34.8058 60.8678 35.4095 60.3245 36.1436 60.3186C37.9354 60.3044 39.7274 60.3126 41.5194 60.3119C41.6662 60.3119 41.8131 60.3119 41.9871 60.3119V57.174C41.4697 57.0706 40.9432 56.9896 40.4286 56.8586C35.9573 55.7202 32.9259 52.8348 31.1394 48.4972C30.4827 46.9027 30.254 45.1984 30.261 43.4635C30.265 42.5078 30.258 41.5519 30.2626 40.596C30.2674 39.6317 30.8772 38.9414 31.7177 38.9377C32.5756 38.9339 33.1824 39.6285 33.1921 40.6184C33.2043 41.845 33.1826 43.0737 33.243 44.2979C33.3768 47.0027 34.4411 49.2919 36.3192 51.1429C39.5142 54.2919 43.2779 55.0608 47.3187 53.4071C50.8659 51.9555 53.0757 49.1288 53.6326 45.1422C53.8453 43.6201 53.7502 42.0515 53.7912 40.5039C53.8162 39.5633 54.5053 38.8798 55.3755 38.9417C56.0464 38.9894 56.6963 39.5951 56.7025 40.2851C56.7195 42.1687 56.837 44.0597 56.5337 45.9307C56.1871 48.0684 55.3695 50.0053 54.0966 51.7241C52.6533 53.6731 50.8818 55.1994 48.6826 56.159C47.646 56.6113 46.5711 56.9164 45.458 57.0783C45.3106 57.0998 45.1644 57.13 44.9942 57.1604V60.3117C45.1394 60.3117 45.2826 60.3117 45.4258 60.3117C47.2053 60.3119 48.9848 60.3044 50.7643 60.3156C51.6963 60.3214 52.3506 61.0114 52.304 61.9175C52.2735 62.5114 51.9677 62.9268 51.4724 63.2031C51.377 63.2563 51.2804 63.3068 51.1842 63.3586H35.7987V63.3587Z" fill="white"/>
<path d="M50.8191 37.4153C50.8191 39.5977 50.8603 41.7811 50.8098 43.9623C50.7294 47.437 47.9664 50.5463 44.6531 51.0513C40.6054 51.6681 37.4844 49.0281 36.5182 45.9106C36.2605 45.0792 36.1638 44.1635 36.1554 43.2848C36.1179 39.3592 36.1399 35.433 36.139 31.507C36.1382 28.2421 37.5852 25.8656 40.3493 24.4043C43.1346 22.9318 46.6191 23.6564 48.7827 26.0149C50.193 27.5525 50.8611 29.3721 50.8433 31.4877C50.8268 33.4634 50.8398 35.4394 50.8398 37.4153C50.833 37.4153 50.826 37.4153 50.8191 37.4153Z" fill="white"/>
</g>
<defs>
<linearGradient id="paint0_linear_103_20741" x1="1.89275e-06" y1="21.75" x2="73.95" y2="74.82" gradientUnits="userSpaceOnUse">
<stop stop-color="#94ACEB"/>
<stop offset="1" stop-color="#625BF6"/>
</linearGradient>
<clipPath id="clip0_103_20741">
<rect width="26.4783" height="39.7174" fill="white" transform="translate(30.2609 23.6413)"/>
</clipPath>
</defs>
</svg>
